<svg xmlns="http://www.w3.org/2000/svg" viewBox="0 0 360 280"><ellipse cx="180" cy="239" rx="87" ry="7" fill="#243C68" opacity=".08"/><g transform="rotate(-7 180 144)"><path d="M85 99V77a12 12 0 0 1 12-12h52l18 19h91a12 12 0 0 1 12 12v109H85z" fill="#91BCD5"/><rect x="110" y="53" width="114" height="140" rx="10" fill="#FBFCFF"/><path d="M129 77h64m-64 15h47m-47 18h71" stroke="#BCCADD" stroke-width="5" stroke-linecap="round"/><rect x="123" y="128" width="44" height="30" rx="5" fill="#DDD8F6"/><path d="M81 108h189a10 10 0 0 1 10 12l-14 84a13 13 0 0 1-13 11H102a13 13 0 0 1-13-11l-16-84a10 10 0 0 1 8-12" fill="#B7DEEE"/><path d="M90 120h173" stroke="#D9EFF7" stroke-width="4" stroke-linecap="round"/><rect x="141" y="149" width="74" height="29" rx="7" fill="#EAF7FC"/><path d="M158 163h40" stroke="#8DB5CF" stroke-width="4" stroke-linecap="round"/></g><circle cx="264" cy="203" r="25" fill="#1B44C8"/><path d="M254 203h20m-10-10v20" stroke="#FFFFFF" stroke-width="3" stroke-linecap="round"/></svg>