<svg xmlns="http://www.w3.org/2000/svg" viewBox="0 0 360 280"><ellipse cx="180" cy="239" rx="91" ry="7" fill="#243C68" opacity=".08"/><rect x="78" y="59" width="204" height="154" rx="20" fill="#FBFCFF"/><rect x="78" y="59" width="204" height="38" rx="20" fill="#B7DEEE"/><path d="M78 80h204v17H78z" fill="#B7DEEE"/><circle cx="101" cy="78" r="5" fill="#8DB5CF"/><path d="M105 126h50m50 0h50M105 180h50m50 0h50" stroke="#D5DFEA" stroke-width="4" stroke-linecap="round"/><g><circle cx="129" cy="139" r="22" fill="#9387DA"/><circle cx="129" cy="132" r="7" fill="#EDEAFB"/><path d="M116 151c3-8 9-12 13-12s10 4 13 12" fill="#EDEAFB"/></g><g><circle cx="180" cy="158" r="27" fill="#72AD9D"/><circle cx="180" cy="149" r="8" fill="#E7F5F0"/><path d="M164 173c3-10 10-15 16-15s13 5 16 15" fill="#E7F5F0"/></g><g><circle cx="231" cy="139" r="22" fill="#EFC55E"/><circle cx="231" cy="132" r="7" fill="#FFF9E6"/><path d="M218 151c3-8 9-12 13-12s10 4 13 12" fill="#FFF9E6"/></g><circle cx="277" cy="205" r="24" fill="#1B44C8"/><path d="M266 205h22m-11-11v22" stroke="#FFF" stroke-width="4" stroke-linecap="round"/></svg>
