<svg xmlns="http://www.w3.org/2000/svg" viewBox="0 0 128 128" width="128" height="128" role="img" aria-label="Avatar avatar-31">
<circle cx="64" cy="64" r="64" fill="#f2e2e2"/>
<g clip-path="url(#r)">

<path d="M 56 77 L 56 96 L 72 96 L 72 77 Z" fill="#5c301d"/>
<path d="M 12 128 C 14 104 34 92 64 92 C 94 92 114 104 116 128 Z" fill="#1f6f6a"/><path d="M 56 92 C 58 104 58 116 58 128 L 70 128 C 70 116 70 104 72 92 Z" fill="#1f6f6a"/><rect x="62.8" y="94" width="2.4" height="34" fill="#eef2f7" opacity="0.7"/><path d="M 56 92 C 60 96 68 96 72 92 L 72 96 C 68 100 60 100 56 96 Z" fill="#eef2f7" opacity="0.55"/>
<g fill="#74402a">
    <ellipse cx="41" cy="57" rx="4" ry="5.5"/>
    <ellipse cx="87" cy="57" rx="4" ry="5.5"/>
  </g>
<path d="M 42 54 C 42 27 86 27 86 54 C 86 68.04 75 81 64 81 C 53 81 42 68.04 42 54 Z" fill="#74402a"/>
<g stroke="#1c1c22" stroke-width="2.6" stroke-linecap="round">
    <path d="M 46 45 C 49 42 55 42 58 44" fill="none"/>
    <path d="M 70 44 C 73 42 79 42 82 45" fill="none"/>
  </g>
<g fill="#14202b">
    <ellipse cx="52" cy="54" rx="2.6" ry="3"/>
    <ellipse cx="76" cy="54" rx="2.6" ry="3"/>
  </g>
<path d="M 62 61 C 62 64 66 64 66.5 62" stroke="#5c301d" stroke-width="2.2" stroke-linecap="round" fill="none"/>
<path d="M 58 68 C 62 70 66 70 70 68" stroke="#14202b" stroke-width="2.2" stroke-linecap="round" fill="none"/>
<path d="M 55 66 C 59 63 69 63 73 66 C 69 68 59 68 55 66 Z" fill="#1c1c22"/>
<path d="M 43 46 C 43 24 85 24 85 46 C 78 35 50 35 43 46 Z" fill="#1c1c22"/>
<g fill="none" stroke="#14202b" stroke-width="2.4"><circle cx="52" cy="54" r="8.5"/><circle cx="76" cy="54" r="8.5"/><path d="M 60.5 54 L 67.5 54"/></g>
</g>
<clipPath id="r"><circle cx="64" cy="64" r="64"/></clipPath>
</svg>