<svg xmlns="http://www.w3.org/2000/svg" viewBox="0 0 128 128" width="128" height="128" role="img" aria-label="Avatar avatar-35">
<circle cx="64" cy="64" r="64" fill="#f3e6d5"/>
<g clip-path="url(#r)">
<circle cx="64" cy="44" r="31" fill="#2e2018"/>
<path d="M 56 77 L 56 96 L 72 96 L 72 77 Z" fill="#7b4227"/>
<path d="M 12 128 C 14 104 34 92 64 92 C 94 92 114 104 116 128 Z" fill="#a0522d"/><path d="M 54 92 L 64 106 L 74 92 L 69 90 L 64 99 L 59 90 Z" fill="#a0522d"/><path d="M 54 92 L 64 106 L 74 92" fill="none" stroke="#0f1720" stroke-width="1.6" opacity="0.35"/><rect x="80" y="104" width="11" height="9" rx="1.6" fill="#0f1720" opacity="0.18"/>
<g fill="#96583a">
    <ellipse cx="41" cy="57" rx="4" ry="5.5"/>
    <ellipse cx="87" cy="57" rx="4" ry="5.5"/>
  </g>
<path d="M 42 54 C 42 27 86 27 86 54 C 86 68.04 75 81 64 81 C 53 81 42 68.04 42 54 Z" fill="#96583a"/>
<g stroke="#2e2018" stroke-width="2.6" stroke-linecap="round">
    <path d="M 46 45 C 49 42 55 42 58 44" fill="none"/>
    <path d="M 70 44 C 73 42 79 42 82 45" fill="none"/>
  </g>
<g fill="#14202b">
    <ellipse cx="52" cy="54" rx="2.6" ry="3"/>
    <ellipse cx="76" cy="54" rx="2.6" ry="3"/>
  </g>
<path d="M 62 61 C 62 64 66 64 66.5 62" stroke="#7b4227" stroke-width="2.2" stroke-linecap="round" fill="none"/>
<path d="M 57 67 C 61 72 67 72 71 67" stroke="#14202b" stroke-width="2.2" stroke-linecap="round" fill="none"/>
<path d="M 43 56 C 43 70.2 53 81 64 81 C 75 81 85 70.2 85 56 C 76 68 52 68 43 56 Z" fill="#2e2018" opacity="0.32"/>
<path d="M 42 46 C 42 28 86 28 86 46 C 79 37 49 37 42 46 Z" fill="#2e2018"/>

</g>
<clipPath id="r"><circle cx="64" cy="64" r="64"/></clipPath>
</svg>