<svg xmlns="http://www.w3.org/2000/svg" viewBox="0 0 128 128" width="128" height="128" role="img" aria-label="Avatar avatar-29">
<circle cx="64" cy="64" r="64" fill="#dcebe4"/>
<g clip-path="url(#r)">

<path d="M 56 76 L 56 96 L 72 96 L 72 76 Z" fill="#dcac86"/>
<path d="M 12 128 C 14 104 34 92 64 92 C 94 92 114 104 116 128 Z" fill="#2b3138"/><path d="M 55 92 L 64 106 L 73 92 L 68 91 L 64 99 L 60 91 Z" fill="#ffffff" opacity="0.9"/><rect x="62.6" y="100" width="2.8" height="16" rx="1.4" fill="#ffffff" opacity="0.55"/>
<g fill="#efc7a4">
    <ellipse cx="41" cy="57" rx="4" ry="5.5"/>
    <ellipse cx="87" cy="57" rx="4" ry="5.5"/>
  </g>
<path d="M 41 54 C 41 28 87 28 87 54 C 87 67.52 82 80 64 80 C 46 80 41 67.52 41 54 Z" fill="#efc7a4"/>
<g stroke="#1c1c22" stroke-width="2.6" stroke-linecap="round">
    <path d="M 46 45 C 49 42 55 42 58 44" fill="none"/>
    <path d="M 70 44 C 73 42 79 42 82 45" fill="none"/>
  </g>
<g fill="#14202b">
    <ellipse cx="52" cy="54" rx="2.6" ry="3"/>
    <ellipse cx="76" cy="54" rx="2.6" ry="3"/>
  </g>
<path d="M 62 61 C 62 64 66 64 66.5 62" stroke="#dcac86" stroke-width="2.2" stroke-linecap="round" fill="none"/>
<path d="M 58 69 L 70 69" stroke="#14202b" stroke-width="2.2" stroke-linecap="round" fill="none"/>
<path d="M 41 55 C 41 70.12 46 81 64 81 C 82 81 87 70.12 87 55 C 77 70 51 70 41 55 Z" fill="#1c1c22"/>
<path d="M 42 48 C 41 23 87 23 86 48 L 84 42 C 74 32 54 32 44 42 Z" fill="#1c1c22"/><rect x="41" y="42" width="4" height="12" rx="2" fill="#1c1c22"/><rect x="83" y="42" width="4" height="12" rx="2" fill="#1c1c22"/>

</g>
<clipPath id="r"><circle cx="64" cy="64" r="64"/></clipPath>
</svg>