<svg xmlns="http://www.w3.org/2000/svg" viewBox="0 0 128 128" width="128" height="128" role="img" aria-label="Avatar avatar-50">
<circle cx="64" cy="64" r="64" fill="#e5eadd"/>
<g clip-path="url(#r)">
<path d="M 38 46 L 38 70 C 44 76 84 76 90 70 L 90 46 Z" fill="#c39a58"/>
<path d="M 56 78 L 56 96 L 72 96 L 72 78 Z" fill="#dcac86"/>
<path d="M 12 128 C 14 104 34 92 64 92 C 94 92 114 104 116 128 Z" fill="#22314f"/><path d="M 52 93 C 58 106 60 116 60 128 L 68 128 C 68 116 70 106 76 93 L 70 91 L 64 104 L 58 91 Z" fill="#eef2f7"/><path d="M 52 93 C 57 104 58 116 58 128 L 50 128 C 49 112 49 100 52 93 Z" fill="#22314f" opacity="0.75"/><path d="M 76 93 C 71 104 70 116 70 128 L 78 128 C 79 112 79 100 76 93 Z" fill="#22314f" opacity="0.75"/>
<g fill="#efc7a4">
    <ellipse cx="41" cy="57" rx="4" ry="5.5"/>
    <ellipse cx="87" cy="57" rx="4" ry="5.5"/>
  </g>
<path d="M 42 54 C 42 26 86 26 86 54 C 86 68.56 71.5 82 64 82 C 56.5 82 42 68.56 42 54 Z" fill="#efc7a4"/>
<g stroke="#c39a58" stroke-width="2.6" stroke-linecap="round">
    <path d="M 46 45 C 49 42 55 42 58 44" fill="none"/>
    <path d="M 70 44 C 73 42 79 42 82 45" fill="none"/>
  </g>
<g fill="#14202b">
    <ellipse cx="52" cy="54" rx="2.6" ry="3"/>
    <ellipse cx="76" cy="54" rx="2.6" ry="3"/>
  </g>
<path d="M 62 61 C 62 64 66 64 66.5 62" stroke="#dcac86" stroke-width="2.2" stroke-linecap="round" fill="none"/>
<path d="M 57 67 C 61 72 67 72 71 67" stroke="#14202b" stroke-width="2.2" stroke-linecap="round" fill="none"/>

<path d="M 40 50 C 39 23 89 23 88 50 C 82 37 46 37 40 50 Z" fill="#c39a58"/>
<g fill="none" stroke="#14202b" stroke-width="2.4"><circle cx="52" cy="54" r="8.5"/><circle cx="76" cy="54" r="8.5"/><path d="M 60.5 54 L 67.5 54"/></g>
</g>
<clipPath id="r"><circle cx="64" cy="64" r="64"/></clipPath>
</svg>