<svg xmlns="http://www.w3.org/2000/svg" viewBox="0 0 128 128" width="128" height="128" role="img" aria-label="Avatar avatar-21">
<circle cx="64" cy="64" r="64" fill="#dcebe4"/>
<g clip-path="url(#r)">
<circle cx="64" cy="22" r="11" fill="#2e2018"/>
<path d="M 56 78 L 56 96 L 72 96 L 72 78 Z" fill="#b6754a"/>
<path d="M 12 128 C 14 104 34 92 64 92 C 94 92 114 104 116 128 Z" fill="#1f6f6a"/><path d="M 54 92 L 64 108 L 74 92 L 68 90 L 64 100 L 60 90 Z" fill="#ffffff"/><path d="M 56 93 L 64 107 L 60 93 Z" fill="#1f6f6a" opacity="0.35"/>
<g fill="#d19265">
    <ellipse cx="41" cy="57" rx="4" ry="5.5"/>
    <ellipse cx="87" cy="57" rx="4" ry="5.5"/>
  </g>
<path d="M 42 54 C 42 26 86 26 86 54 C 86 68.56 71.5 82 64 82 C 56.5 82 42 68.56 42 54 Z" fill="#d19265"/>
<g stroke="#2e2018" stroke-width="2.6" stroke-linecap="round">
    <path d="M 46 45 C 49 42 55 42 58 44" fill="none"/>
    <path d="M 70 44 C 73 42 79 42 82 45" fill="none"/>
  </g>
<g fill="#14202b">
    <ellipse cx="52" cy="54" rx="2.6" ry="3"/>
    <ellipse cx="76" cy="54" rx="2.6" ry="3"/>
  </g>
<path d="M 62 61 C 62 64 66 64 66.5 62" stroke="#b6754a" stroke-width="2.2" stroke-linecap="round" fill="none"/>
<path d="M 57 67 C 61 72 67 72 71 67" stroke="#14202b" stroke-width="2.2" stroke-linecap="round" fill="none"/>

<path d="M 41 48 C 40 24 88 24 87 48 C 80 32 48 32 41 48 Z" fill="#2e2018"/>

</g>
<clipPath id="r"><circle cx="64" cy="64" r="64"/></clipPath>
</svg>